<?xml version="1.0" encoding="UTF-8"?>
<svg version="1.1" xmlns="http://www.w3.org/2000/svg" width="512" height="512">
<path d="M0 0 C0.84079102 0.22026855 1.68158203 0.44053711 2.54785156 0.66748047 C30.17832157 8.03239669 57.12184728 20.82441353 80 38 C80.60634277 38.4522998 81.21268555 38.90459961 81.83740234 39.37060547 C90.33881519 45.75857026 98.33228005 52.6314742 106 60 C106.59458008 60.56734863 107.18916016 61.13469727 107.80175781 61.71923828 C116.69404601 70.24693808 124.72480074 79.05605002 132 89 C132.70310303 89.9597876 132.70310303 89.9597876 133.42041016 90.93896484 C141.53296648 102.06593296 141.53296648 102.06593296 143 105 C144.79090821 105.78468022 144.79090821 105.78468022 146.99731445 106.38867188 C147.84522049 106.64233521 148.69312653 106.89599854 149.56672668 107.15734863 C150.95102119 107.55899231 150.95102119 107.55899231 152.36328125 107.96875 C153.30680954 108.24972534 154.25033783 108.53070068 155.22245789 108.82019043 C158.25034808 109.72081724 161.28117308 110.61101546 164.3125 111.5 C167.33267623 112.39036458 170.35214873 113.28296455 173.3704071 114.17980957 C175.25120162 114.73819687 177.13317905 115.29261841 179.01643372 115.84265137 C180.30247749 116.22314636 180.30247749 116.22314636 181.61450195 116.61132812 C182.36649368 116.8317981 183.11848541 117.05226807 183.89326477 117.27941895 C187.84619884 118.63146801 189.62135858 119.43203786 192 123 C192.37109375 125.0859375 192.37109375 125.0859375 192.4375 127.375 C192.47746094 128.12523437 192.51742187 128.87546875 192.55859375 129.6484375 C191.71929991 133.1816885 189.94881584 135.05616354 187 137 C183.31169317 138.5669206 179.53324306 139.69789884 175.6875 140.8125 C174.14739258 141.27946289 174.14739258 141.27946289 172.57617188 141.75585938 C170.05467603 142.51817207 167.52974434 143.26561971 165 144 C165 147.08663165 165.54506471 148.8865332 166.57421875 151.76953125 C167.07755737 153.2093335 167.07755737 153.2093335 167.59106445 154.67822266 C168.13380005 156.22968994 168.13380005 156.22968994 168.6875 157.8125 C177.4976835 183.70833399 181.62028081 209.85530418 181.4375 237.1875 C181.43293793 238.64994644 181.43293793 238.64994644 181.42828369 240.14193726 C181.3551533 256.07282497 180.36649885 271.38254094 177 287 C176.79101074 288.00643555 176.58202148 289.01287109 176.36669922 290.04980469 C166.8714646 334.7307514 144.76577091 375.30421567 113 408 C112.42137207 408.60440918 111.84274414 409.20881836 111.24658203 409.83154297 C102.72092718 418.71989518 93.91385456 426.69683132 84 434 C83.43990234 434.42087891 82.87980469 434.84175781 82.30273438 435.27539062 C54.35050025 456.26374635 22.67703924 469.38093681 -11 478 C-10.35933594 478.59941406 -9.71867187 479.19882812 -9.05859375 479.81640625 C-6.44504195 482.58865569 -6.07722065 484.21618816 -6 488 C-8.13043478 492.56521739 -8.13043478 492.56521739 -11 494 C-15.17486582 494.65095359 -17.39324085 493.95436157 -20.73828125 491.59375 C-32.98805726 483.09469281 -43.67164014 482.13288014 -58.125 482.5 C-59.01914612 482.52266937 -59.91329224 482.54533875 -60.83453369 482.56869507 C-64.40588624 482.66449065 -67.9770638 482.76469079 -71.54803467 482.87382507 C-94.1649906 483.47809591 -116.8375288 478.87494888 -138.22387695 471.73706055 C-143.05532957 470.1684394 -147.86287365 469.23314548 -152.875 468.4375 C-164.04203572 466.62500324 -171.36161669 463.23842432 -180 456 C-184.98249244 451.98115445 -190.23745105 448.58804312 -195.6875 445.25 C-203.20076769 440.62444344 -210.15351715 435.55481569 -217 430 C-217.99902344 429.2059375 -218.99804688 428.411875 -220.02734375 427.59375 C-234.99206559 415.48409264 -248.69698659 401.58563516 -260 386 C-260.85491814 384.85115255 -261.71039429 383.70272016 -262.56640625 382.5546875 C-268.61012552 374.36094236 -273.94530712 365.83228784 -279 357 C-279.65613281 355.87722656 -280.31226563 354.75445312 -280.98828125 353.59765625 C-298.28251926 322.78687951 -308.92323906 285.65342356 -309.23828125 250.2265625 C-309.2480751 249.31334732 -309.25786896 248.40013214 -309.26795959 247.45924377 C-309.43954459 227.30371883 -309.29220863 207.78698446 -305 188 C-304.78037598 186.96697754 -304.56075195 185.93395508 -304.33447266 184.86962891 C-301.33989145 171.14287557 -297.19900175 158.04364935 -292 145 C-297.62741814 142.45811139 -303.25287039 140.65274281 -309.21484375 139.0703125 C-313.96533201 137.68967347 -316.86404491 136.02337641 -320 132 C-320.62890625 129.68359375 -320.62890625 129.68359375 -320.5625 127.4375 C-320.56378906 126.69371094 -320.56507813 125.94992188 -320.56640625 125.18359375 C-319.78440241 122.16883413 -318.33856881 121.02898994 -316 119 C-313.56835938 117.90673828 -313.56835938 117.90673828 -310.84375 117.0703125 C-309.83038574 116.75344482 -308.81702148 116.43657715 -307.77294922 116.11010742 C-306.69287598 115.78502197 -305.61280273 115.45993652 -304.5 115.125 C-303.39027832 114.77477783 -302.28055664 114.42455566 -301.13720703 114.0637207 C-295.83832595 112.405023 -290.54294222 110.85172759 -285.1484375 109.53515625 C-274.49724598 107.24248233 -274.49724598 107.24248233 -266.9375 100 C-266.47601563 99.04867187 -266.01453125 98.09734375 -265.5390625 97.1171875 C-263.69802302 93.38838165 -261.4021471 90.35971358 -258.8125 87.125 C-258.34223389 86.53323975 -257.87196777 85.94147949 -257.38745117 85.33178711 C-252.23345497 78.92823181 -246.69994507 72.91761615 -241 67 C-240.41702148 66.38979004 -239.83404297 65.77958008 -239.23339844 65.15087891 C-230.71242045 56.26938056 -221.90719473 48.29826263 -212 41 C-211.43990234 40.57912109 -210.87980469 40.15824219 -210.30273438 39.72460938 C-150.74476888 -4.99538548 -71.73687143 -19.10900759 0 0 Z " fill="#0074EF" transform="translate(320,13)"/>
<path d="M0 0 C8.93137298 1.72207042 17.48441798 4.60587911 26.1171875 7.41796875 C27.34192465 7.81583304 27.34192465 7.81583304 28.59140396 8.221735 C32.91102312 9.6254113 37.22889472 11.0343193 41.54541016 12.44750977 C45.97106266 13.89526311 50.40241606 15.32466284 54.83535576 16.74991894 C58.27399055 17.85926406 61.70800507 18.98241467 65.14096451 20.10918617 C66.77134226 20.64169925 68.40338397 21.16914877 70.0371666 21.69112206 C85.17720636 26.5375426 98.1730063 32.35531217 105.8125 47.125 C109.05694522 53.87964705 110.29107966 59.51376775 110.23950195 66.93945312 C110.24151611 67.81826645 110.24353027 68.69707977 110.24560547 69.6025238 C110.24913989 71.50295192 110.2483976 73.40339183 110.24382973 75.30381775 C110.23822073 78.31372582 110.2474205 81.32325084 110.2610321 84.33312988 C110.29809957 92.88795739 110.31668718 101.44265296 110.30541992 109.99755859 C110.29956599 115.23719137 110.31783989 120.47628269 110.35130882 125.71580505 C110.35925647 127.70924873 110.35799448 129.70275151 110.34728432 131.69618225 C110.33294224 134.48490236 110.34924194 137.27192052 110.37231445 140.06054688 C110.35466286 141.2904258 110.35466286 141.2904258 110.33665466 142.54515076 C110.43207308 148.43524199 111.94709184 150.76820653 116 155 C116.55859375 157.6328125 116.55859375 157.6328125 116.4375 160.125 C116.40462891 161.36636719 116.40462891 161.36636719 116.37109375 162.6328125 C115.98323328 165.10695402 115.23995434 166.83879445 114 169 C114.845625 169.20625 115.69125 169.4125 116.5625 169.625 C120 171 120 171 127 177 C127.33 130.47 127.66 83.94 128 36 C148.56711859 29.1442938 148.56711859 29.1442938 157.875 26.5 C159.91295418 25.91343319 161.95071131 25.32618139 163.98828125 24.73828125 C165.4880249 24.30636475 165.4880249 24.30636475 167.01806641 23.86572266 C172.52180443 22.26786323 178.00754386 20.6103066 183.49365234 18.953125 C184.97927625 18.50487368 186.46587853 18.05984727 187.95361328 17.61865234 C189.89371674 17.03213097 191.82048865 16.40202928 193.74609375 15.76953125 C199.01932011 14.5224417 199.01932011 14.5224417 202 16 C203.45583191 18.74501352 204.46464245 21.14363547 205.4375 24.0625 C205.73116455 24.908125 206.0248291 25.75375 206.32739258 26.625 C209.90692633 37.24701349 212.67018024 48.04147141 215 59 C215.21317871 59.98274902 215.42635742 60.96549805 215.64599609 61.97802734 C222.01907317 92.73153566 221.60944611 127.3382477 215 158 C214.68651611 159.50965332 214.68651611 159.50965332 214.36669922 161.04980469 C204.8714646 205.7307514 182.76577091 246.30421567 151 279 C150.42137207 279.60440918 149.84274414 280.20881836 149.24658203 280.83154297 C140.72092718 289.71989518 131.91385456 297.69683132 122 305 C121.43990234 305.42087891 120.87980469 305.84175781 120.30273438 306.27539062 C92.35050025 327.26374635 60.67703924 340.38093681 27 349 C27.64066406 349.59941406 28.28132813 350.19882812 28.94140625 350.81640625 C31.55495805 353.58865569 31.92277935 355.21618816 32 359 C29.86956522 363.56521739 29.86956522 363.56521739 27 365 C22.82513418 365.65095359 20.60675915 364.95436157 17.26171875 362.59375 C5.01194274 354.09469281 -5.67164014 353.13288014 -20.125 353.5 C-21.01914612 353.52266937 -21.91329224 353.54533875 -22.83453369 353.56869507 C-26.40588624 353.66449065 -29.9770638 353.76469079 -33.54803467 353.87382507 C-56.1649906 354.47809591 -78.8375288 349.87494888 -100.22387695 342.73706055 C-105.05532957 341.1684394 -109.86287365 340.23314548 -114.875 339.4375 C-129.07783653 337.13226915 -139.20100862 331.52694616 -148 320 C-149.175625 318.515 -149.175625 318.515 -150.375 317 C-152.48328381 313.10778373 -152.88922721 311.37203377 -152 307 C-145.8947649 297.47853916 -134.78339747 290.2521532 -123.8671875 287.453125 C-108.65765031 285.04943792 -94.80058772 287.2029154 -82.078125 296.25 C-78.30245809 299.42950898 -74.9216987 303.01948406 -72 307 C-72 307.66 -72 308.32 -72 309 C-69.69 308.67 -67.38 308.34 -65 308 C-65.94359375 307.18917969 -66.8871875 306.37835938 -67.859375 305.54296875 C-75.08546986 299.31660979 -82.23233319 293.02971326 -89.21875 286.53515625 C-90.1365625 285.69855469 -91.054375 284.86195313 -92 284 C-92.45971191 283.46528076 -92.91942383 282.93056152 -93.39306641 282.37963867 C-97.16805516 278.37843558 -100.23713129 277.5407757 -105.7109375 277.16796875 C-108.26550977 277.14284614 -110.82057489 277.15031208 -113.375 277.1875 C-114.65117187 277.15591797 -115.92734375 277.12433594 -117.2421875 277.09179688 C-126.17849225 277.12410789 -130.58235852 278.9318598 -137 285 C-139.78515625 286.70703125 -139.78515625 286.70703125 -142.0625 287.8125 C-142.81660156 288.19019531 -143.57070312 288.56789063 -144.34765625 288.95703125 C-154.87698423 293.09742974 -168.109831 294.07272605 -178.9375 290.4375 C-190.92417939 285.17953941 -201.58749071 277.23697753 -207 265 C-206.48655493 258.73798366 -202.39992396 255.11742482 -198 251 C-185.85753632 241.6413289 -174.04496974 238.58918418 -159 240 C-146.24951857 242.03381912 -135.99778627 248.25249044 -127.5 257.8125 C-126 260 -126 260 -126 262 C-122.7 261.67 -119.4 261.34 -116 261 C-117.14597656 259.865625 -118.29195313 258.73125 -119.47265625 257.5625 C-121.00273997 256.0418033 -122.53268024 254.52096224 -124.0625 253 C-124.81466797 252.25621094 -125.56683594 251.51242187 -126.34179688 250.74609375 C-130.5651295 246.54104395 -134.62238169 242.26200572 -138.48999023 237.7265625 C-139.23744507 236.87191406 -139.23744507 236.87191406 -140 236 C-140.46237061 235.46407227 -140.92474121 234.92814453 -141.40112305 234.37597656 C-144.68955404 231.5459877 -149.27038516 230.89263602 -153.375 229.75 C-154.32117188 229.46898437 -155.26734375 229.18796875 -156.2421875 228.8984375 C-157.16 228.63804687 -158.0778125 228.37765625 -159.0234375 228.109375 C-159.85794434 227.87186523 -160.69245117 227.63435547 -161.55224609 227.38964844 C-166.11455885 226.66339159 -169.54023917 228.20639532 -173.625 230.0625 C-183.48068755 233.72662265 -196.91780671 233.72015542 -206.80859375 230.0390625 C-220.3369774 223.62453478 -230.68930436 214.62122732 -235.9375 200.25 C-237.9103811 193.09671497 -237.9103811 193.09671497 -237 189 C-231.67654168 182.96164081 -224.55416737 180.21271674 -217 178 C-216.37738281 177.80792969 -215.75476563 177.61585938 -215.11328125 177.41796875 C-204.95724526 175.4092888 -195.44769578 177.15608456 -186 181 C-185.01 181.33 -184.02 181.66 -183 182 C-187.4985728 173.30272035 -187.4985728 173.30272035 -195.25 168.125 C-195.99894531 167.95484375 -196.74789062 167.7846875 -197.51953125 167.609375 C-208.99950241 164.78909862 -219.14331542 156.9864577 -225.375 147.0625 C-226.27163857 145.38639722 -227.14777821 143.6991172 -228 142 C-228.61875 140.95199219 -228.61875 140.95199219 -229.25 139.8828125 C-232.2909828 133.94867245 -232.38385438 128.03620502 -232.4375 121.5 C-232.44765137 120.62174561 -232.45780273 119.74349121 -232.46826172 118.83862305 C-232.35993669 110.65245491 -230.90923045 101.06893938 -225 95 C-214.17983211 93.53285859 -201.93222114 97.82545403 -193.3125 104.25 C-183.42857959 112.48079992 -177.00703418 122.37873268 -174 135 C-173.34587161 142.62866617 -173.67315916 149.44703137 -176 156.75 C-177.06348098 160.7294772 -177.32497349 162.30601867 -175.55859375 166.078125 C-173.51273894 168.89635593 -171.35855757 171.44045231 -169 174 C-167.65685637 175.65877086 -166.32051332 177.32315769 -165 179 C-165.2165625 178.16082031 -165.2165625 178.16082031 -165.4375 177.3046875 C-168.53821379 163.91132656 -167.97952936 151.64446297 -161.046875 139.609375 C-156.92579765 133.11231393 -152.09750203 126.40630551 -145 123 C-138.69999653 122.19467333 -135.57409717 124.81156259 -130.75390625 128.5234375 C-122.39873611 136.03716497 -115.75150001 146.57761573 -114.84301758 157.96826172 C-114.06602534 172.77509496 -116.31368984 185.20510532 -126 197 C-126.50635986 197.40895508 -127.01271973 197.81791016 -127.53442383 198.23925781 C-130.08134659 200.37218918 -131.79364524 201.87571808 -132.40844727 205.2253418 C-132.39369607 207.8269873 -132.16457445 210.29732909 -131.8125 212.875 C-131.70373535 213.77323486 -131.5949707 214.67146973 -131.48291016 215.59692383 C-130.44368641 222.64234445 -128.49851242 226.43740459 -123 231 C-121.49933037 232.64733193 -120.0201641 234.31449498 -118.5625 236 C-117.3753141 237.33361301 -116.18793011 238.66704985 -115 240 C-115.28875 239.05640625 -115.5775 238.1128125 -115.875 237.140625 C-120.24097165 222.30759094 -120.50669084 208.45395092 -113.375 194.25 C-110.0952764 188.71597506 -106.28266126 183.74808536 -101 180 C-94.63526983 179.18994343 -89.02469548 183.37937955 -84 187 C-73.67406598 195.53488706 -66.93134824 207.51545364 -65.6171875 220.8984375 C-65.05191777 233.72145843 -68.55643805 244.53931427 -76 255 C-76.85464844 255.72509766 -76.85464844 255.72509766 -77.7265625 256.46484375 C-79.25685933 257.96453525 -79.25685933 257.96453525 -78.92578125 260.3125 C-78.72339844 261.199375 -78.52101562 262.08625 -78.3125 263 C-77.23279511 267.91429317 -76.43024863 272.79911392 -75.7578125 277.78515625 C-75.22320219 280.13060279 -75.22320219 280.13060279 -73.203125 281.0625 C-72.47609375 281.371875 -71.7490625 281.68125 -71 282 C-69.5066042 283.27246271 -68.05193036 284.59092579 -66.625 285.9375 C-57.93421866 293.90833496 -48.47299172 300.98998613 -39 308 C-39 306.35 -39 304.7 -39 303 C-39.721875 302.76410156 -40.44375 302.52820313 -41.1875 302.28515625 C-49.38313897 298.54020455 -55.50375763 290.1091553 -59 282 C-59.39058594 281.13117188 -59.78117188 280.26234375 -60.18359375 279.3671875 C-64.79014777 267.66749666 -64.51066622 254.73012726 -60.328125 242.93359375 C-58.14605937 238.11379585 -55.3723873 234.05961748 -52 230 C-51.40703125 229.27167969 -50.8140625 228.54335938 -50.203125 227.79296875 C-46.03236743 223.11470749 -46.03236743 223.11470749 -42.1875 222.6875 C-29.81331617 227.78275217 -21.32835471 235.22810614 -15 247 C-15 247.66 -15 248.32 -15 249 C0.03747058 242.50311176 14.94800803 235.75653851 29.8125 228.875 C31.51138411 228.08884748 33.21027727 227.30271453 34.90917969 226.51660156 C35.73544861 226.13425354 36.56171753 225.75190552 37.4130249 225.35797119 C38.22547668 224.9820282 39.03792847 224.60608521 39.875 224.21875 C41.07216644 223.66474518 41.07216644 223.66474518 42.29351807 223.09954834 C48.62405434 220.17115383 54.95942127 217.25425753 61.3125 214.375 C62.09923096 214.01519043 62.88596191 213.65538086 63.6965332 213.28466797 C68.76383975 211 68.76383975 211 71 211 C70.95359375 209.90042969 70.9071875 208.80085937 70.859375 207.66796875 C70.52123313 196.1880522 71.43816856 186.29025006 79 177 C82.95227421 172.98974621 86.41777457 170.3615184 92 169 C91.67773438 168.44183594 91.35546875 167.88367188 91.0234375 167.30859375 C89.87908529 164.72724964 89.66835286 162.87610041 89.625 160.0625 C89.59664063 159.22847656 89.56828125 158.39445313 89.5390625 157.53515625 C90 155 90 155 91.99546814 152.88346863 C94.64457481 149.07279536 94.56961048 145.80621787 94.53344727 141.3293457 C94.54206284 140.46685715 94.55067841 139.60436859 94.55955505 138.71574402 C94.58222703 135.86878292 94.57547093 133.02280581 94.56640625 130.17578125 C94.57164342 128.18905852 94.57792024 126.20233828 94.58518982 124.21562195 C94.59559794 120.05028595 94.59102978 115.88529144 94.57641602 111.7199707 C94.55927778 106.40153878 94.58266002 101.08419225 94.61790562 95.76588154 C94.63995579 91.66066935 94.63841888 87.55571343 94.6301403 83.45046043 C94.62932399 81.49099733 94.63612589 79.5315148 94.65091133 77.57210732 C94.73012198 65.16841196 94.59973842 55.54822085 85.5 46.1875 C75.40133791 38.15523848 59.95197881 35.28544748 47.8125 31.375 C45.92006278 30.76252592 44.02773004 30.14972892 42.13549805 29.53662109 C37.35236237 27.98765117 32.56794222 26.44269027 27.78320312 24.89868164 C23.39622215 23.48214857 19.01060086 22.06142401 14.625 20.640625 C6.7511361 18.0902279 -1.12394224 15.54361421 -9 13 C-9 12.01 -9 11.02 -9 10 C-8.071875 9.401875 -7.14375 8.80375 -6.1875 8.1875 C-2.657201 5.76474579 -1.59680539 3.90330207 0 0 Z " fill="#65BDFB" transform="translate(282,142)"/>
<path d="M0 0 C4.07162295 1.07844614 8.14140792 2.16368362 12.2109375 3.25 C13.34523193 3.55035156 14.47952637 3.85070312 15.64819336 4.16015625 C25.24254087 6.72684046 34.67609699 9.68911298 44.1015625 12.8125 C49.88745387 14.68865174 55.71902431 16.38122291 61.5625 18.06640625 C71.00527142 20.79154706 80.39866678 23.65493144 89.78086472 26.57981491 C94.32301905 27.99260457 98.86987286 29.39021433 103.4165554 30.78835106 C107.29952287 31.98373235 111.17914589 33.18843956 115.05322266 34.41235352 C118.88680994 35.62287823 122.72754012 36.8077808 126.57399368 37.97674751 C128.00768895 38.41713118 129.43878455 38.86609752 130.86671066 39.32484245 C144.37135915 43.65364257 158.38418459 45.4732605 171.9296875 40.1953125 C175.4620553 38.82011588 179.04942154 37.73815751 182.6875 36.6875 C183.38609131 36.48294189 184.08468262 36.27838379 184.80444336 36.06762695 C189.23394793 34.77760707 193.67468141 33.53119605 198.12109375 32.30078125 C208.21702831 29.50653439 218.22251137 26.67085971 228.125 23.25 C234.02046421 21.28484526 240.05383911 19.76694361 246.05883789 18.17749023 C252.09702074 16.56685002 257.93509777 14.74945725 263.7578125 12.46875 C266.64792219 11.86454588 267.52650848 12.45251246 270 14 C277.25088424 22.24388864 275.70586753 34.28916079 275.62890625 44.48828125 C275.62973594 46.47983428 275.63219909 48.47138724 275.63621521 50.4629364 C275.63906256 54.61946426 275.62446942 58.77545005 275.59692383 62.93188477 C275.56273162 68.25617342 275.56890631 73.57950061 275.5875864 78.90383625 C275.59815452 83.00884512 275.58922211 87.11363033 275.57420158 91.21861839 C275.56902543 93.18219527 275.56949469 95.14579553 275.57574654 97.10936928 C275.58120087 99.84987337 275.56082114 102.5889988 275.53344727 105.3293457 C275.54323608 106.54116516 275.54323608 106.54116516 275.55322266 107.77746582 C275.4666228 112.87972943 274.47488257 115.31023657 271 119 C270.48519643 121.5229652 270.48519643 121.5229652 270.6875 124.0625 C270.71199219 124.89910156 270.73648437 125.73570312 270.76171875 126.59765625 C270.98271997 128.82578334 271.38914908 130.84960613 272 133 C271.33613281 133.36351562 270.67226563 133.72703125 269.98828125 134.1015625 C259.4586354 140.09654335 255.73321573 146.80035281 252 158 C251.85596652 159.33363703 251.75409577 160.67218046 251.68359375 162.01171875 C251.64169922 162.76904297 251.59980469 163.52636719 251.55664062 164.30664062 C251.51732422 165.09232422 251.47800781 165.87800781 251.4375 166.6875 C251.37272461 167.88342773 251.37272461 167.88342773 251.30664062 169.10351562 C251.20072632 171.06881447 251.09987449 173.03438496 251 175 C230.81189566 184.37738292 210.61881936 193.74336866 190.375 203 C189.64042572 203.33620361 188.90585144 203.67240723 188.14901733 204.01879883 C186.06595316 204.97188192 183.9823177 205.92370265 181.8984375 206.875 C180.72974121 207.40867187 179.56104492 207.94234375 178.35693359 208.4921875 C177.24914551 208.98976563 176.14135742 209.48734375 175 210 C174.38022278 210.28391602 173.76044556 210.56783203 173.12188721 210.86035156 C170.2328973 212.15337895 168.20280911 213 165 213 C163.5703125 211.0234375 163.5703125 211.0234375 162.125 208.375 C156.4958926 198.63705507 149.32398448 192.58098878 139 188 C135.22015531 187.89784204 133.2389381 189.41668571 130.5625 191.875 C121.2704134 201.77441252 117.44944819 214.05870337 117.51000977 227.39111328 C117.98205407 240.4842076 122.93745735 251.21578416 132.37890625 260.28515625 C136.39526994 264.05647498 136.39526994 264.05647498 141 267 C141.625 270.0625 141.625 270.0625 142 273 C136.8488576 270.24793026 132.60410457 267.18612172 128.25 263.3125 C127.02821498 262.24509569 125.80554785 261.17870028 124.58203125 260.11328125 C123.98084473 259.58814941 123.3796582 259.06301758 122.76025391 258.52197266 C117.76311727 254.20128614 112.67226741 249.92932261 107.31640625 246.0625 C103.07268 242.28393767 102.49575398 237.33429255 101.3125 231.9375 C101.04050781 230.72964844 100.76851563 229.52179688 100.48828125 228.27734375 C99.91199473 224.40930863 99.95966913 222.44856197 102.234375 219.28125 C102.73453125 218.6934375 103.2346875 218.105625 103.75 217.5 C112.14156656 206.74261829 114.16821718 194.23555049 113 181 C110.6165299 169.25970729 104.36912139 158.50813153 95 151 C87.6005904 145.91969655 87.6005904 145.91969655 79 145 C71.05237321 150.15816562 65.83371756 160.03430554 63.12109375 168.859375 C62.55755346 171.58643709 62.21869201 174.22459964 62 177 C61.91878906 177.92039062 61.83757812 178.84078125 61.75390625 179.7890625 C61.36219979 188.59652296 63.61451922 196.60821939 66 205 C62.50992953 202.16861889 59.29497515 199.43200871 56.375 196 C55.55128906 195.0409375 55.55128906 195.0409375 54.7109375 194.0625 C54.14632812 193.381875 53.58171875 192.70125 53 192 C52.30648437 191.29488281 51.61296875 190.58976563 50.8984375 189.86328125 C46.76055909 183.62240703 46.27758453 174.34645981 47 167 C48.57380934 164.11685067 50.05731914 162.90173477 52.69140625 160.984375 C55.69167934 158.40546006 57.20156827 155.38490416 58.875 151.875 C59.42929688 150.71742188 59.98359375 149.55984375 60.5546875 148.3671875 C63.33829828 141.88212672 64.36085247 136.75074692 64.3125 129.75 C64.30686035 128.9031665 64.3012207 128.05633301 64.29541016 127.18383789 C64.0440514 114.24135086 59.11883625 103.33090221 50 94 C46.24182424 90.96831175 42.69141244 88.45809087 38 87.1875 C29.45852587 89.50081591 24.21800089 96.62152551 19.73046875 103.83203125 C12.39406474 117.26278441 12.99128445 130.33251168 16 145 C12.36418852 141.55487793 9.49756323 138.05926614 6.75 133.875 C6.06421875 132.84117187 5.3784375 131.80734375 4.671875 130.7421875 C3 128 3 128 2 125 C2.55859375 122.828125 2.55859375 122.828125 3.4375 120.25 C6.90663513 108.09196622 5.6358346 96.2716692 0 85 C-0.09312908 82.31470138 -0.12578322 79.65555582 -0.11352539 76.97021484 C-0.11367142 76.14086929 -0.11381744 75.31152374 -0.1139679 74.45704651 C-0.11326971 71.70831715 -0.10548171 68.95965506 -0.09765625 66.2109375 C-0.09579174 64.30807533 -0.09436799 62.40521268 -0.09336853 60.50234985 C-0.08954599 55.48818644 -0.07971793 50.47405189 -0.06866455 45.4598999 C-0.05844479 40.34566641 -0.0538697 35.23142826 -0.04882812 30.1171875 C-0.03809545 20.07811231 -0.02102216 10.03905855 0 0 Z " fill="#0055C9" transform="translate(102,178)"/>
<path d="M0 0 C14.36264332 1.16812626 26.0894215 6.73357838 36 17.1875 C45.35827182 28.37389933 48.41093614 41.20606478 47.3125 55.5 C46.68966963 57.76252664 46.02490537 60.01406104 45.3125 62.25 C44.24901902 66.2294772 43.98752651 67.80601867 45.75390625 71.578125 C47.79976106 74.39635593 49.95394243 76.94045231 52.3125 79.5 C53.65564363 81.15877086 54.99198668 82.82315769 56.3125 84.5 C56.168125 83.94054687 56.02375 83.38109375 55.875 82.8046875 C52.77428621 69.41132656 53.33297064 57.14446297 60.265625 45.109375 C64.38670235 38.61231393 69.21499797 31.90630551 76.3125 28.5 C82.61250347 27.69467333 85.73840283 30.31156259 90.55859375 34.0234375 C98.91376389 41.53716497 105.56099999 52.07761573 106.46948242 63.46826172 C107.24647466 78.27509496 104.99881016 90.70510532 95.3125 102.5 C94.80614014 102.90895508 94.29978027 103.31791016 93.77807617 103.73925781 C91.23115341 105.87218918 89.51885476 107.37571808 88.90405273 110.7253418 C88.91880393 113.3269873 89.14792555 115.79732909 89.5 118.375 C89.60876465 119.27323486 89.7175293 120.17146973 89.82958984 121.09692383 C90.86881359 128.14234445 92.81398758 131.93740459 98.3125 136.5 C99.81316963 138.14733193 101.2923359 139.81449498 102.75 141.5 C103.9371859 142.83361301 105.12456989 144.16704985 106.3125 145.5 C106.02375 144.55640625 105.735 143.6128125 105.4375 142.640625 C101.07152835 127.80759094 100.80580916 113.95395092 107.9375 99.75 C111.2172236 94.21597506 115.02983874 89.24808536 120.3125 85.5 C126.67723017 84.68994343 132.28780452 88.87937955 137.3125 92.5 C147.63843402 101.03488706 154.38115176 113.01545364 155.6953125 126.3984375 C156.26058223 139.22145843 152.75606195 150.03931427 145.3125 160.5 C144.45785156 161.22509766 144.45785156 161.22509766 143.5859375 161.96484375 C142.05564067 163.46453525 142.05564067 163.46453525 142.38671875 165.8125 C142.58910156 166.699375 142.79148438 167.58625 143 168.5 C144.07970489 173.41429317 144.88225137 178.29911392 145.5546875 183.28515625 C146.08929781 185.63060279 146.08929781 185.63060279 148.109375 186.5625 C148.83640625 186.871875 149.5634375 187.18125 150.3125 187.5 C151.8058958 188.77246271 153.26056964 190.09092579 154.6875 191.4375 C163.37828134 199.40833496 172.83950828 206.48998613 182.3125 213.5 C182.3125 211.85 182.3125 210.2 182.3125 208.5 C181.590625 208.26410156 180.86875 208.02820313 180.125 207.78515625 C171.92936103 204.04020455 165.80874237 195.6091553 162.3125 187.5 C161.92191406 186.63117188 161.53132812 185.76234375 161.12890625 184.8671875 C156.52235223 173.16749666 156.80183378 160.23012726 160.984375 148.43359375 C163.16644063 143.61379585 165.9401127 139.55961748 169.3125 135.5 C169.90546875 134.77167969 170.4984375 134.04335938 171.109375 133.29296875 C175.28013257 128.61470749 175.28013257 128.61470749 179.125 128.1875 C193.34484627 134.04273082 202.28743887 143.17799328 208.484375 157.18359375 C210.58710965 162.60971191 210.96769944 167.53355562 210.875 173.3125 C210.86549316 174.2730127 210.85598633 175.23352539 210.84619141 176.22314453 C210.53386289 186.93799865 207.65740974 195.58797816 200.546875 203.81640625 C198.74449685 206.27471315 198.24771707 208.47171144 198.43920898 211.51123047 C198.84192612 213.80722386 199.28326526 216.09113594 199.75 218.375 C199.94239258 219.56029297 199.94239258 219.56029297 200.13867188 220.76953125 C201.07072193 225.3052566 202.21238334 227.88285518 205.93359375 230.734375 C207.37584335 231.68321911 208.83616849 232.60510652 210.3125 233.5 C211.00947998 233.94939941 211.70645996 234.39879883 212.42456055 234.86181641 C214.57598951 236.23449814 216.75036507 237.56003984 218.9375 238.875 C219.71730225 239.34687744 220.49710449 239.81875488 221.30053711 240.30493164 C235.01409663 248.81588223 235.01409663 248.81588223 249.640625 255.515625 C251.86940366 256.82789655 252.43623552 258.09704792 253.3125 260.5 C253.1649997 264.04000728 252.68346501 265.9779011 250.625 268.875 C247.48976117 271.0781408 246.11983691 271.00235695 242.3125 270.5 C240.51831055 269.46240234 240.51831055 269.46240234 238.57421875 268.09375 C226.32444274 259.59469281 215.64085986 258.63288014 201.1875 259 C200.29335388 259.02266937 199.39920776 259.04533875 198.47796631 259.06869507 C194.90661376 259.16449065 191.3354362 259.26469079 187.76446533 259.37382507 C165.1475094 259.97809591 142.4749712 255.37494888 121.08862305 248.23706055 C116.25717043 246.6684394 111.44962635 245.73314548 106.4375 244.9375 C92.23466347 242.63226915 82.11149138 237.02694616 73.3125 225.5 C72.52875 224.51 71.745 223.52 70.9375 222.5 C68.82921619 218.60778373 68.42327279 216.87203377 69.3125 212.5 C75.4177351 202.97853916 86.52910253 195.7521532 97.4453125 192.953125 C112.65484969 190.54943792 126.51191228 192.7029154 139.234375 201.75 C143.01004191 204.92950898 146.3908013 208.51948406 149.3125 212.5 C149.3125 213.16 149.3125 213.82 149.3125 214.5 C151.6225 214.17 153.9325 213.84 156.3125 213.5 C155.36890625 212.68917969 154.4253125 211.87835938 153.453125 211.04296875 C146.22703014 204.81660979 139.08016681 198.52971326 132.09375 192.03515625 C131.1759375 191.19855469 130.258125 190.36195313 129.3125 189.5 C128.85278809 188.96528076 128.39307617 188.43056152 127.91943359 187.87963867 C124.14444484 183.87843558 121.07536871 183.0407757 115.6015625 182.66796875 C113.04699023 182.64284614 110.49192511 182.65031208 107.9375 182.6875 C106.66132813 182.65591797 105.38515625 182.62433594 104.0703125 182.59179688 C95.13400775 182.62410789 90.73014148 184.4318598 84.3125 190.5 C81.52734375 192.20703125 81.52734375 192.20703125 79.25 193.3125 C78.49589844 193.69019531 77.74179688 194.06789063 76.96484375 194.45703125 C66.43551577 198.59742974 53.202669 199.57272605 42.375 195.9375 C30.38832061 190.67953941 19.72500929 182.73697753 14.3125 170.5 C14.82594507 164.23798366 18.91257604 160.61742482 23.3125 156.5 C35.45496368 147.1413289 47.26753026 144.08918418 62.3125 145.5 C75.06298143 147.53381912 85.31471373 153.75249044 93.8125 163.3125 C95.3125 165.5 95.3125 165.5 95.3125 167.5 C98.6125 167.17 101.9125 166.84 105.3125 166.5 C104.16652344 165.365625 103.02054687 164.23125 101.83984375 163.0625 C100.30976003 161.5418033 98.77981976 160.02096224 97.25 158.5 C96.49783203 157.75621094 95.74566406 157.01242187 94.97070312 156.24609375 C90.7473705 152.04104395 86.69011831 147.76200572 82.82250977 143.2265625 C82.07505493 142.37191406 82.07505493 142.37191406 81.3125 141.5 C80.85012939 140.96407227 80.38775879 140.42814453 79.91137695 139.87597656 C76.62294596 137.0459877 72.04211484 136.39263602 67.9375 135.25 C66.99132812 134.96898437 66.04515625 134.68796875 65.0703125 134.3984375 C64.1525 134.13804687 63.2346875 133.87765625 62.2890625 133.609375 C61.45455566 133.37186523 60.62004883 133.13435547 59.76025391 132.88964844 C55.19794115 132.16339159 51.77226083 133.70639532 47.6875 135.5625 C37.83181245 139.22662265 24.39469329 139.22015542 14.50390625 135.5390625 C0.9755226 129.12453478 -9.37680436 120.12122732 -14.625 105.75 C-16.5978811 98.59671497 -16.5978811 98.59671497 -15.6875 94.5 C-10.36404168 88.46164081 -3.24166737 85.71271674 4.3125 83.5 C4.93511719 83.30792969 5.55773437 83.11585938 6.19921875 82.91796875 C16.35525474 80.9092888 25.86480422 82.65608456 35.3125 86.5 C36.3025 86.83 37.2925 87.16 38.3125 87.5 C33.8139272 78.80272035 33.8139272 78.80272035 26.0625 73.625 C25.31355469 73.45484375 24.56460938 73.2846875 23.79296875 73.109375 C12.31299759 70.28909862 2.16918458 62.4864577 -4.0625 52.5625 C-4.95913857 50.88639722 -5.83527821 49.1991172 -6.6875 47.5 C-7.1 46.80132812 -7.5125 46.10265625 -7.9375 45.3828125 C-10.9784828 39.44867245 -11.07135438 33.53620502 -11.125 27 C-11.13515137 26.12174561 -11.14530273 25.24349121 -11.15576172 24.33862305 C-11.04765356 16.1688435 -9.72630102 1.31882048 0 0 Z " fill="#FE9501" transform="translate(60.6875,236.5)"/>
<path d="M0 0 C0.84079102 0.22026855 1.68158203 0.44053711 2.54785156 0.66748047 C30.17832157 8.03239669 57.12184728 20.82441353 80 38 C80.60634277 38.4522998 81.21268555 38.90459961 81.83740234 39.37060547 C90.33881519 45.75857026 98.33228005 52.6314742 106 60 C106.59458008 60.56734863 107.18916016 61.13469727 107.80175781 61.71923828 C116.69646655 70.24925937 124.71202288 79.06308686 132 89 C132.46873535 89.63454102 132.9374707 90.26908203 133.42041016 90.92285156 C134.83053142 92.83832593 136.2308016 94.76041022 137.625 96.6875 C138.05143799 97.2760376 138.47787598 97.8645752 138.91723633 98.47094727 C140.69858404 100.97643797 142.02114554 103.06343661 143 106 C136.61800391 104.99389709 130.67352954 103.28039805 124.57470703 101.16699219 C118.38583551 99.05930829 112.11337561 97.30228334 105.8125 95.5625 C90.7759411 91.40385855 75.86262626 86.92742381 61.00244141 82.17944336 C54.96306902 80.26591062 48.88226775 78.55404971 42.76904297 76.89428711 C37.30037951 75.39616209 31.89794579 73.73458246 26.5 72 C20.44789939 70.05661418 14.38373942 68.23060299 8.25 66.5625 C0.44512755 64.43859629 -7.28754447 62.11165855 -15.01904297 59.7355957 C-23.27021299 57.20559391 -31.5494748 54.77996095 -39.84423828 52.39697266 C-44.20825406 51.13669119 -48.53057195 49.83498401 -52.8203125 48.33984375 C-66.86491112 43.62921367 -79.70283883 49.45225719 -93.02490234 54.00878906 C-97.0026853 55.33406387 -101.01370692 56.47727577 -105.0625 57.5625 C-121.85132473 62.10611294 -138.56806846 66.98722613 -155.12109375 72.328125 C-164.13679845 75.22519735 -173.18232866 77.92228777 -182.3125 80.4375 C-190.26685298 82.62899309 -198.15338557 84.94940428 -206 87.5 C-214.86904297 90.380847 -223.79943474 92.95732303 -232.7890625 95.43432617 C-240.35307185 97.52211094 -247.87462681 99.72356038 -255.36962891 102.04711914 C-260.53259089 103.62931717 -265.71290114 104.90242702 -271 106 C-268.14256774 99.80189326 -264.73515219 94.65040526 -260.5 89.3125 C-259.57078735 88.13240356 -259.57078735 88.13240356 -258.62280273 86.9284668 C-253.07236708 79.95473325 -247.20760526 73.38934668 -241 67 C-240.42137207 66.39559082 -239.84274414 65.79118164 -239.24658203 65.16845703 C-230.72092718 56.28010482 -221.91385456 48.30316868 -212 41 C-211.43990234 40.57912109 -210.87980469 40.15824219 -210.30273438 39.72460938 C-150.74476888 -4.99538548 -71.73687143 -19.10900759 0 0 Z " fill="#64BDFB" transform="translate(320,13)"/>
<path d="M0 0 C8.20473723 0.79768279 16.27322146 3.75440675 24.13330078 6.1328125 C28.82664779 7.55256796 33.52333794 8.96119538 38.21972656 10.37084961 C40.80167418 11.14585271 43.38293348 11.92303124 45.96386719 12.70141602 C53.37854583 14.93334571 60.80598339 17.09733701 68.26293945 19.18334961 C71 20 71 20 73 21 C73 48.39 73 75.78 73 104 C70.38071589 101.38071589 68.20277132 99.0321246 65.9375 96.1875 C58.33299754 87.44069031 47.49866387 82.02666642 36 81 C33.32685384 80.93399639 30.6748605 80.95307262 28 81 C27.17988688 82.55851755 26.36923787 84.12201716 25.5625 85.6875 C25.11003906 86.55761719 24.65757813 87.42773438 24.19140625 88.32421875 C20.08624381 97.5440098 20.56207597 111.08095929 22.90625 120.73046875 C24.08493207 123.65072913 25.39823575 126.29094754 27 129 C27.45761719 129.81597656 27.91523437 130.63195312 28.38671875 131.47265625 C34.47255087 141.46009033 44.09820605 148.66624868 55.48828125 151.65234375 C56.23464844 151.82894531 56.98101562 152.00554687 57.75 152.1875 C63.86769807 154.00718026 66.90885265 159.7639749 70 165 C70.33 165.99 70.66 166.98 71 168 C70.43152344 167.80664062 69.86304687 167.61328125 69.27734375 167.4140625 C68.50519531 167.15367187 67.73304687 166.89328125 66.9375 166.625 C66.18339844 166.36976563 65.42929688 166.11453125 64.65234375 165.8515625 C63.77707031 165.57054687 62.90179688 165.28953125 62 165 C60.89398438 164.64292969 59.78796875 164.28585937 58.6484375 163.91796875 C45.75909059 160.67493179 33.27405532 163.4505488 22 170 C18.97136086 171.63681896 18.97136086 171.63681896 17 174 C15.45323812 182.42125912 19.97144827 190.89048091 24.5625 197.6875 C31.68403918 206.95344317 42.29454671 214.22298829 54 216 C64.76935501 216.8589302 73.32319709 216.39137742 83.234375 211.99609375 C87.75595559 210.36755837 90.60700766 211.51282475 95 213 C96.16660156 213.22816406 97.33320312 213.45632813 98.53515625 213.69140625 C108.25070155 215.70453726 113.63265853 219.27241615 120 227 C121.14356769 228.31447451 122.28923493 229.62712692 123.4375 230.9375 C124.241875 231.88109375 124.241875 231.88109375 125.0625 232.84375 C128.05105455 236.169722 131.24488252 239.28654695 134.44506836 242.40795898 C135.64713757 243.58814561 136.8259277 244.79195816 138 246 C138 246.33 138 246.66 138 247 C134.19986553 247.55662006 130.78265741 247.75036411 127 247 C124.81262908 245.01549009 123.42078909 242.91225502 121.79296875 240.453125 C115.54021031 231.89815267 104.18358261 227.58608929 94 226 C78.74847083 225.04872875 67.42594625 227.49780581 55 237 C50.91116451 240.79987185 47.30671213 244.1812328 47 250 C52.6942298 263.08707731 63.46125152 269.5335998 76 275 C87.05609046 278.23003966 100.65774051 276.63765694 111 272 C115.11028654 269.70902062 118.76037502 267.13489851 122.23095703 263.95751953 C129.51919658 258.80524438 142.04882836 260.53466899 150.57226562 261.31201172 C158.35890565 262.87488576 162.75535565 268.26569839 167.51367188 274.23486328 C169.7149988 276.84911979 172.17618695 278.77715215 174.875 280.875 C179.71867275 284.75284295 184.53836249 288.68157555 189 293 C189 293.33 189 293.66 189 294 C185.93395963 294.42290212 183.95618285 294.6946222 181 294 C179.21300008 292.23100512 177.98810122 290.32460534 176.60546875 288.2265625 C170.4998117 279.75886294 160.55108849 276.18369616 151 273 C134.28029213 271.60121597 121.1933779 274.22857822 108.0625 285.125 C103.37211903 289.37065613 103.37211903 289.37065613 101.5 295.3125 C102.15839136 300.16813631 103.92777607 302.23652568 107 306 C106.67 306.66 106.34 307.32 106 308 C94.87682558 301.18023502 84.12145719 294.25973838 74 286 C73.00484375 285.20851563 72.0096875 284.41703125 70.984375 283.6015625 C56.01309726 271.4936957 42.30521216 257.58866698 31 242 C30.14508186 240.85115255 29.28960571 239.70272016 28.43359375 238.5546875 C22.38987448 230.36094236 17.05469288 221.83228784 12 213 C11.34386719 211.87722656 10.68773438 210.75445312 10.01171875 209.59765625 C-7.28251926 178.78687951 -17.92323906 141.65342356 -18.23828125 106.2265625 C-18.2480751 105.31334732 -18.25786896 104.40013214 -18.26795959 103.45924377 C-18.43954459 83.30371883 -18.29220863 63.78698446 -14 44 C-13.78037598 42.96697754 -13.56075195 41.93395508 -13.33447266 40.86962891 C-5.65138107 5.65138107 -5.65138107 5.65138107 0 0 Z " fill="#65BDFB" transform="translate(29,157)"/>
<path d="M0 0 C8.93137298 1.72207042 17.48441798 4.60587911 26.1171875 7.41796875 C26.93367893 7.68321161 27.75017036 7.94845448 28.59140396 8.221735 C32.91102312 9.6254113 37.22889472 11.0343193 41.54541016 12.44750977 C45.97106266 13.89526311 50.40241606 15.32466284 54.83535576 16.74991894 C58.27399055 17.85926406 61.70800507 18.98241467 65.14096451 20.10918617 C66.77134226 20.64169925 68.40338397 21.16914877 70.0371666 21.69112206 C85.17720636 26.5375426 98.1730063 32.35531217 105.8125 47.125 C109.05694522 53.87964705 110.29107966 59.51376775 110.23950195 66.93945312 C110.24151611 67.81826645 110.24353027 68.69707977 110.24560547 69.6025238 C110.24913989 71.50295192 110.2483976 73.40339183 110.24382973 75.30381775 C110.23822073 78.31372582 110.2474205 81.32325084 110.2610321 84.33312988 C110.29809957 92.88795739 110.31668718 101.44265296 110.30541992 109.99755859 C110.29956599 115.23719137 110.31783989 120.47628269 110.35130882 125.71580505 C110.35925647 127.70924873 110.35799448 129.70275151 110.34728432 131.69618225 C110.33294224 134.48490236 110.34924194 137.27192052 110.37231445 140.06054688 C110.36054672 140.88046616 110.34877899 141.70038544 110.33665466 142.54515076 C110.43207308 148.43524199 111.94709184 150.76820653 116 155 C116.55859375 157.6328125 116.55859375 157.6328125 116.4375 160.125 C116.40462891 161.36636719 116.40462891 161.36636719 116.37109375 162.6328125 C115.98323328 165.10695402 115.23995434 166.83879445 114 169 C114.825 169.185625 115.65 169.37125 116.5 169.5625 C124.5943763 172.88697598 129.5889353 179.0798884 133 187 C133.82210084 189.80236098 134.12843561 192.30320649 134.14044189 195.21925354 C134.14615204 196.05341797 134.15186218 196.8875824 134.15774536 197.74702454 C134.15942215 199.10696785 134.15942215 199.10696785 134.16113281 200.49438477 C134.16609772 201.45575348 134.17106262 202.41712219 134.17617798 203.40762329 C134.19077578 206.58555822 134.19759603 209.76344331 134.203125 212.94140625 C134.20887639 215.14810691 134.21463413 217.35480755 134.22039795 219.56150818 C134.23089975 224.18578321 134.23674846 228.81004089 134.24023438 233.43432617 C134.24573134 239.36860507 134.2697885 245.30265594 134.29820633 251.23686314 C134.31679506 255.79295024 134.3220362 260.34898185 134.32357025 264.90510368 C134.32660352 267.09364004 134.33465459 269.28217527 134.34775543 271.47067451 C134.36474452 274.52563204 134.36295367 277.58002463 134.35644531 280.63500977 C134.3656601 281.54366287 134.37487488 282.45231598 134.3843689 283.38850403 C134.37601517 284.63552094 134.37601517 284.63552094 134.36749268 285.9077301 C134.36895924 286.62982949 134.3704258 287.35192888 134.3719368 288.09591007 C133.88761414 290.57534716 132.972055 291.46607553 131 293 C128.54017639 293.38768005 128.54017639 293.38768005 125.58227539 293.40405273 C123.92023827 293.42307899 123.92023827 293.42307899 122.22462463 293.44248962 C120.42927528 293.43808617 120.42927528 293.43808617 118.59765625 293.43359375 C117.36840927 293.4388356 116.13916229 293.44407745 114.87266541 293.44947815 C111.60419168 293.45755422 108.33613602 293.45041949 105.06768799 293.43914795 C101.74877836 293.43642033 98.43011423 293.47159501 95.11132812 293.49804688 C92.58593793 293.49965903 90.06054519 293.49908108 87.53515625 293.49609375 C86.34028091 293.50732773 85.14540558 293.51856171 83.9143219 293.53013611 C82.80314499 293.52075516 81.69196808 293.51137421 80.54711914 293.50170898 C79.08176476 293.50145973 79.08176476 293.50145973 77.58680725 293.50120544 C75 293 75 293 72.68565369 291.53115845 C70.17799153 287.76568141 70.44052019 284.43296972 70.48242188 279.99975586 C70.4754126 279.09025177 70.46840332 278.18074768 70.46118164 277.24368286 C70.44356447 274.23375989 70.45524458 271.22477651 70.46875 268.21484375 C70.46605453 266.11698731 70.46217164 264.01913208 70.45715332 261.92127991 C70.45125186 257.51876969 70.45983618 253.11658384 70.47851562 248.71411133 C70.50120705 243.09433595 70.48824841 237.47532887 70.46422577 231.85558224 C70.44970126 227.51872583 70.45440587 223.18204833 70.46473694 218.84518623 C70.467391 216.7749173 70.46418135 214.70463171 70.45481873 212.63438225 C70.36004706 185.76670042 70.36004706 185.76670042 80.59765625 175.37890625 C84.16054457 172.11357783 87.21525655 170.1670106 92 169 C91.67773438 168.44183594 91.35546875 167.88367188 91.0234375 167.30859375 C89.87908529 164.72724964 89.66835286 162.87610041 89.625 160.0625 C89.59664063 159.22847656 89.56828125 158.39445313 89.5390625 157.53515625 C90 155 90 155 91.99546814 152.88346863 C94.64457481 149.07279536 94.56961048 145.80621787 94.53344727 141.3293457 C94.54206284 140.46685715 94.55067841 139.60436859 94.55955505 138.71574402 C94.58222703 135.86878292 94.57547093 133.02280581 94.56640625 130.17578125 C94.57164342 128.18905852 94.57792024 126.20233828 94.58518982 124.21562195 C94.59559794 120.05028595 94.59102978 115.88529144 94.57641602 111.7199707 C94.55927778 106.40153878 94.58266002 101.08419225 94.61790562 95.76588154 C94.63995579 91.66066935 94.63841888 87.55571343 94.6301403 83.45046043 C94.62932399 81.49099733 94.63612589 79.5315148 94.65091133 77.57210732 C94.73012198 65.16841196 94.59973842 55.54822085 85.5 46.1875 C75.40133791 38.15523848 59.95197881 35.28544748 47.8125 31.375 C45.92006278 30.76252592 44.02773004 30.14972892 42.13549805 29.53662109 C37.35236237 27.98765117 32.56794222 26.44269027 27.78320312 24.89868164 C23.39622215 23.48214857 19.01060086 22.06142401 14.625 20.640625 C6.7511361 18.0902279 -1.12394224 15.54361421 -9 13 C-9 12.01 -9 11.02 -9 10 C-7.6078125 9.1028125 -7.6078125 9.1028125 -6.1875 8.1875 C-2.657201 5.76474579 -1.59680539 3.90330207 0 0 Z " fill="#FDB108" transform="translate(282,142)"/>
<path d="M0 0 C0.00546844 1.44913033 0.00546844 1.44913033 0.01104736 2.92753601 C0.04800113 12.03547264 0.10577783 21.14307128 0.18390274 30.25075054 C0.22339893 34.93305036 0.25557685 39.61516151 0.27099609 44.29760742 C0.28614865 48.81712718 0.32056903 53.33612834 0.36830902 57.85541725 C0.38313733 59.57892154 0.39104185 61.30249986 0.39188385 63.02606773 C0.39425098 65.44201207 0.42130786 67.85652022 0.45410156 70.2722168 C0.4490712 70.98359802 0.44404083 71.69497925 0.43885803 72.42791748 C0.53903314 77.20293106 1.68258674 79.59630145 5 83 C-19.1569442 98.55310106 -58.46048579 119.3034263 -88 114 C-90.60101888 111.87546616 -91.48218217 110.15843684 -92.203125 106.91015625 C-92.46609375 105.73356445 -92.46609375 105.73356445 -92.734375 104.53320312 C-92.90453125 103.71787109 -93.0746875 102.90253906 -93.25 102.0625 C-93.5284375 100.84530273 -93.5284375 100.84530273 -93.8125 99.60351562 C-95.30068783 92.73192105 -95.30068783 92.73192105 -94 89 C-93.4225 88.29875 -92.845 87.5975 -92.25 86.875 C-85.16717688 77.82472602 -82.65935564 68.41022343 -82.75 57.125 C-82.74226563 56.16980469 -82.73453125 55.21460938 -82.7265625 54.23046875 C-82.72914063 53.29074219 -82.73171875 52.35101563 -82.734375 51.3828125 C-82.73775879 50.12041748 -82.73775879 50.12041748 -82.74121094 48.83251953 C-83.0843067 45.07723932 -84.02244681 41.64179822 -85 38 C-62.15774079 27.43004972 -39.2998078 16.89722571 -16.36523438 6.52880859 C-14.14380453 5.51962449 -11.92624154 4.50187943 -9.71289062 3.47509766 C-8.71966797 3.01538574 -7.72644531 2.55567383 -6.703125 2.08203125 C-5.83848633 1.67831299 -4.97384766 1.27459473 -4.08300781 0.85864258 C-2 0 -2 0 0 0 Z " fill="#92CFFC" transform="translate(353,353)"/>
<path d="M0 0 C1.49749157 2.52512242 2.70410145 4.88998001 3.875 7.5625 C4.22087158 8.33045898 4.56674316 9.09841797 4.9230957 9.88964844 C5.97199028 12.25044834 6.99146722 14.62170636 8 17 C8.28697754 17.6707959 8.57395508 18.3415918 8.86962891 19.03271484 C12.18845998 26.92272816 14.65866536 34.9369524 16.6875 43.25 C16.87787842 44.02182617 17.06825684 44.79365234 17.2644043 45.58886719 C21.00649523 61.81057841 22.58892118 77.94075553 22.5 94.5625 C22.49790527 95.47143005 22.49581055 96.38036011 22.49365234 97.3168335 C22.36155695 125.2923146 16.17077676 150.8832246 5.0625 176.5625 C4.78752686 177.20324463 4.51255371 177.84398926 4.22924805 178.50415039 C2.66674898 181.93766744 1.11722356 184.84981416 -1.22094727 187.84545898 C-10.5781007 200.23210318 -9.23047645 214.02325551 -9.0625 228.9375 C-9.06557969 231.56706524 -9.0727072 234.19662901 -9.08398438 236.82617188 C-9.10268175 243.21817934 -9.07132659 249.60839596 -9 256 C-9.33 256 -9.66 256 -10 256 C-10.00546844 254.19168198 -10.00546844 254.19168198 -10.01104736 252.34683228 C-10.04806429 240.95949092 -10.10591033 229.57241831 -10.18390274 218.18528175 C-10.22333229 212.3316807 -10.2555431 206.47822907 -10.27099609 200.62451172 C-10.28619223 194.97034608 -10.32069084 189.31659136 -10.36830902 183.6626091 C-10.38309224 181.5106095 -10.39103925 179.35855122 -10.39188385 177.20650101 C-10.39426443 174.18100953 -10.42143239 171.15664365 -10.45410156 168.13134766 C-10.4490712 167.25092804 -10.44404083 166.37050842 -10.43885803 165.46340942 C-10.53872037 159.44608024 -11.51482582 151.48517418 -16 147 C-16.09650437 145.13971966 -16.12187292 143.27572971 -16.12025452 141.41294861 C-16.12162918 140.19993576 -16.12300385 138.98692291 -16.12442017 137.7371521 C-16.12088056 136.38067603 -16.11724575 135.0242002 -16.11352539 133.66772461 C-16.11324352 132.24887596 -16.11340124 130.83002716 -16.1139679 129.41117859 C-16.11425589 125.54771199 -16.1083589 121.68427617 -16.10139394 117.82081676 C-16.09516067 113.78757427 -16.09455662 109.75433115 -16.09336853 105.72108459 C-16.09025514 98.07834532 -16.08204164 90.43562027 -16.07201904 82.79288727 C-16.06085816 74.09411981 -16.05534752 65.39535169 -16.05032361 56.69657886 C-16.03985903 38.79771116 -16.02225943 20.89885672 -16 3 C-14.08802961 2.29954544 -12.17019565 1.615081 -10.25 0.9375 C-9.18265625 0.55464844 -8.1153125 0.17179688 -7.015625 -0.22265625 C-4.05891672 -0.98481292 -2.72997215 -1.30103245 0 0 Z " fill="#93CFFA" transform="translate(426,175)"/>
<path d="M0 0 C3.77902722 3.18944214 7.05729588 6.8441138 10.078125 10.75390625 C10.078125 11.08390625 10.078125 11.41390625 10.078125 11.75390625 C-0.62386819 12.07178724 -11.1569718 11.37088538 -21.81982422 10.46533203 C-31.07103611 9.06826898 -31.07103611 9.06826898 -39.859375 10.81640625 C-41.5359379 13.87366801 -41.28716477 16.34453505 -40.921875 19.75390625 C-39.23872793 22.14544855 -38.12568481 22.70031962 -35.27734375 23.44921875 C-34.23191406 23.59101563 -33.18648437 23.7328125 -32.109375 23.87890625 C-31.09230469 24.02585937 -30.07523438 24.1728125 -29.02734375 24.32421875 C-27.65976031 24.47585606 -26.29108784 24.61776463 -24.921875 24.75390625 C-24.02887695 24.84510742 -23.13587891 24.93630859 -22.21582031 25.03027344 C-14.54321298 25.69674497 -6.95450028 25.79189193 0.7421875 25.75390625 C3.96485004 25.75437124 7.18749672 25.7578755 10.41015625 25.76220703 C12.60913215 25.75666394 14.8081178 25.73675812 17.00683594 25.70263672 C39.0890861 25.39055493 39.0890861 25.39055493 47.81201172 33.47705078 C48.5598291 34.22841309 49.30764648 34.97977539 50.078125 35.75390625 C51.34843201 36.69578502 52.64252575 37.60738786 53.96875 38.46875 C54.52554443 38.84008057 55.08233887 39.21141113 55.65600586 39.59399414 C56.20780518 39.95614014 56.75960449 40.31828613 57.328125 40.69140625 C57.9372876 41.09544678 58.5464502 41.4994873 59.17407227 41.91577148 C64.76098037 45.59806794 70.43886053 49.13510327 76.15136719 52.61889648 C77.80957534 53.63839202 79.44640236 54.69253607 81.078125 55.75390625 C81.078125 56.08390625 81.078125 56.41390625 81.078125 56.75390625 C48.00928826 60.84411186 13.39241201 57.01711604 -18.14575195 46.4909668 C-22.97720457 44.92234565 -27.78474865 43.98705173 -32.796875 43.19140625 C-46.99971153 40.8861754 -57.12288362 35.28085241 -65.921875 23.75390625 C-66.705625 22.76390625 -67.489375 21.77390625 -68.296875 20.75390625 C-70.40515881 16.86168998 -70.81110221 15.12594002 -69.921875 10.75390625 C-63.8166399 1.23244541 -52.70527247 -5.99394055 -41.7890625 -8.79296875 C-26.57172364 -11.19788879 -12.73628895 -9.03333086 0 0 Z " fill="#FEB40A" transform="translate(199.921875,438.24609375)"/>
<path d="M0 0 C2.65677164 0.49322754 5.25049273 1.05609029 7.875 1.6875 C8.94621094 1.93016602 8.94621094 1.93016602 10.0390625 2.17773438 C16.31430552 3.66309775 21.82768241 5.75552088 28 8 C28 35.39 28 62.78 28 91 C25.38071589 88.38071589 23.20277132 86.0321246 20.9375 83.1875 C13.33299754 74.44069031 2.49866387 69.02666642 -9 68 C-11.67314616 67.93399639 -14.3251395 67.95307262 -17 68 C-17.82011312 69.55851755 -18.63076213 71.12201716 -19.4375 72.6875 C-19.88996094 73.55761719 -20.34242187 74.42773438 -20.80859375 75.32421875 C-24.91375619 84.5440098 -24.43792403 98.08095929 -22.09375 107.73046875 C-20.91506793 110.65072913 -19.60176425 113.29094754 -18 116 C-17.54238281 116.81597656 -17.08476563 117.63195312 -16.61328125 118.47265625 C-10.52744913 128.46009033 -0.90179395 135.66624868 10.48828125 138.65234375 C11.23464844 138.82894531 11.98101562 139.00554687 12.75 139.1875 C18.86769807 141.00718026 21.90885265 146.7639749 25 152 C25.33 152.99 25.66 153.98 26 155 C25.43152344 154.80664062 24.86304688 154.61328125 24.27734375 154.4140625 C23.50519531 154.15367187 22.73304687 153.89328125 21.9375 153.625 C21.18339844 153.36976563 20.42929688 153.11453125 19.65234375 152.8515625 C18.77707031 152.57054687 17.90179688 152.28953125 17 152 C15.89398438 151.64292969 14.78796875 151.28585937 13.6484375 150.91796875 C4.01185618 148.49334711 -5.80091726 149.44915406 -15 153 C-15.99 153.33 -16.98 153.66 -18 154 C-20.62486204 145.01685565 -22.55621158 136.34309738 -23.60546875 127.046875 C-23.90575563 123.96309261 -23.90575563 123.96309261 -25 121 C-25.10984314 118.03109676 -25.16408078 115.08650768 -25.16796875 112.1171875 C-25.17129715 111.22951691 -25.17462555 110.34184631 -25.17805481 109.42727661 C-25.18312376 107.53925086 -25.18546314 105.65121614 -25.18530273 103.76318359 C-25.1874548 100.93440913 -25.20551327 98.10604736 -25.22460938 95.27734375 C-25.33086503 61.55591503 -16.91946599 30.75012603 -1 1 C-0.67 0.67 -0.34 0.34 0 0 Z " fill="#93CFFB" transform="translate(74,170)"/>
<path d="M0 0 C8.93137298 1.72207042 17.48441798 4.60587911 26.1171875 7.41796875 C26.93367893 7.68321161 27.75017036 7.94845448 28.59140396 8.221735 C32.91102312 9.6254113 37.22889472 11.0343193 41.54541016 12.44750977 C45.97106266 13.89526311 50.40241606 15.32466284 54.83535576 16.74991894 C58.27399055 17.85926406 61.70800507 18.98241467 65.14096451 20.10918617 C66.77134226 20.64169925 68.40338397 21.16914877 70.0371666 21.69112206 C85.17720636 26.5375426 98.1730063 32.35531217 105.8125 47.125 C109.05694522 53.87964705 110.29107966 59.51376775 110.23950195 66.93945312 C110.24151611 67.81826645 110.24353027 68.69707977 110.24560547 69.6025238 C110.24913989 71.50295192 110.2483976 73.40339183 110.24382973 75.30381775 C110.23822073 78.31372582 110.2474205 81.32325084 110.2610321 84.33312988 C110.29809957 92.88795739 110.31668718 101.44265296 110.30541992 109.99755859 C110.29956599 115.23719137 110.31783989 120.47628269 110.35130882 125.71580505 C110.35925647 127.70924873 110.35799448 129.70275151 110.34728432 131.69618225 C110.33294224 134.48490236 110.34924194 137.27192052 110.37231445 140.06054688 C110.36054672 140.88046616 110.34877899 141.70038544 110.33665466 142.54515076 C110.43202412 148.43222004 111.94037148 150.77577621 116 155 C117.19039589 159.85030872 116.48794037 163.96781845 114.375 168.4375 C110.75662327 172.34153805 107.77129163 173.77858855 102.5 174.4375 C97.37207299 173.79650912 94.50323426 171.7036655 91.125 167.875 C89.47689697 163.66318114 89.11716619 159.4489263 90 155 C90.65922958 154.30226974 91.31845917 153.60453949 91.99766541 152.88566589 C94.6430237 149.07330595 94.56960788 145.8058953 94.53344727 141.3293457 C94.54206284 140.46685715 94.55067841 139.60436859 94.55955505 138.71574402 C94.58222703 135.86878292 94.57547093 133.02280581 94.56640625 130.17578125 C94.57164342 128.18905852 94.57792024 126.20233828 94.58518982 124.21562195 C94.59559794 120.05028595 94.59102978 115.88529144 94.57641602 111.7199707 C94.55927778 106.40153878 94.58266002 101.08419225 94.61790562 95.76588154 C94.63995579 91.66066935 94.63841888 87.55571343 94.6301403 83.45046043 C94.62932399 81.49099733 94.63612589 79.5315148 94.65091133 77.57210732 C94.73012198 65.16841196 94.59973842 55.54822085 85.5 46.1875 C75.40133791 38.15523848 59.95197881 35.28544748 47.8125 31.375 C45.92006278 30.76252592 44.02773004 30.14972892 42.13549805 29.53662109 C37.35236237 27.98765117 32.56794222 26.44269027 27.78320312 24.89868164 C23.39622215 23.48214857 19.01060086 22.06142401 14.625 20.640625 C6.7511361 18.0902279 -1.12394224 15.54361421 -9 13 C-9 12.01 -9 11.02 -9 10 C-7.6078125 9.1028125 -7.6078125 9.1028125 -6.1875 8.1875 C-2.657201 5.76474579 -1.59680539 3.90330207 0 0 Z " fill="#FBA903" transform="translate(282,142)"/>
<path d="M0 0 C4.14705929 1.09959564 8.2924092 2.20550907 12.4375 3.3125 C13.60216797 3.62123047 14.76683594 3.92996094 15.96679688 4.24804688 C22.39302395 5.96774144 28.71606297 7.81574381 35 10 C35.2088369 20.04863809 35.36859712 30.09675739 35.46630955 40.1471262 C35.51321618 44.81444177 35.57679671 49.48026938 35.67895508 54.14672852 C35.77698951 58.65318774 35.83060673 63.15821929 35.85389519 67.66566277 C35.87048272 69.38220636 35.90287799 71.09867461 35.95157051 72.81460762 C36.31883746 86.29753147 36.31883746 86.29753147 33.02397156 90.55082703 C30.75969029 92.30542082 28.50810148 93.63227009 26 95 C17.27704858 105.11971916 13.34245135 116.24120441 13.7265625 129.5078125 C14.13642288 134.74231502 14.9454501 139.85906923 16 145 C12.36418852 141.55487793 9.49756323 138.05926614 6.75 133.875 C6.06421875 132.84117187 5.3784375 131.80734375 4.671875 130.7421875 C3 128 3 128 2 125 C2.55859375 122.828125 2.55859375 122.828125 3.4375 120.25 C6.90663513 108.09196622 5.6358346 96.2716692 0 85 C-0.09312908 82.31470138 -0.12578322 79.65555582 -0.11352539 76.97021484 C-0.11367142 76.14086929 -0.11381744 75.31152374 -0.1139679 74.45704651 C-0.11326971 71.70831715 -0.10548171 68.95965506 -0.09765625 66.2109375 C-0.09579174 64.30807533 -0.09436799 62.40521268 -0.09336853 60.50234985 C-0.08954599 55.48818644 -0.07971793 50.47405189 -0.06866455 45.4598999 C-0.05844479 40.34566641 -0.0538697 35.23142826 -0.04882812 30.1171875 C-0.03809545 20.07811231 -0.02102216 10.03905855 0 0 Z " fill="#01429B" transform="translate(102,178)"/>
<path d="M0 0 C5.10875635 3.76759752 8.57347304 7.63378708 12 13 C-0.91944742 13.20247476 -13.58908296 13.34275364 -26.37890625 11.33984375 C-30.5952556 10.94413459 -33.84883774 11.15381858 -38 12 C-40.16551116 15.24826674 -40.55156953 16.23094157 -40 20 C-36.23642701 24.70666974 -32.66916796 24.9092929 -26.93530273 25.58618164 C-12.32660335 27.12236537 2.38883857 27.26808946 17.0625 27.5625 C19.10482389 27.6058294 21.14714168 27.64944748 23.18945312 27.69335938 C28.12623828 27.79889028 33.06308873 27.90055189 38 28 C38 28.33 38 28.66 38 29 C37.19892822 28.99363525 36.39785645 28.98727051 35.57250977 28.98071289 C31.90158447 28.97196565 28.23313545 29.01682261 24.5625 29.0625 C23.30244141 29.05154297 22.04238281 29.04058594 20.74414062 29.02929688 C11.81815507 29.19243499 7.43496749 30.93850208 1 37 C-1.78515625 38.70703125 -1.78515625 38.70703125 -4.0625 39.8125 C-4.81660156 40.19019531 -5.57070312 40.56789063 -6.34765625 40.95703125 C-16.87698423 45.09742974 -30.109831 46.07272605 -40.9375 42.4375 C-52.92417939 37.17953941 -63.58749071 29.23697753 -69 17 C-68.48655493 10.73798366 -64.39992396 7.11742482 -60 3 C-41.811735 -11.01840636 -19.6308226 -12.07800197 0 0 Z " fill="#FDB10A" transform="translate(144,390)"/>
<path d="M0 0 C13.79584631 5.566745 22.6651619 14.76069458 28.8203125 28.1796875 C33.16107547 39.38067726 33.14757948 51.46857002 28.8359375 62.67578125 C25.99324788 68.84075535 23.30023657 74.56700098 17.5625 78.4375 C15.4123025 71.85252016 14.52742085 65.15740731 13.5625 58.3125 C13.06425918 54.8481693 12.56496571 51.38405086 12.05859375 47.92089844 C11.71824511 45.5310882 11.39901462 43.13820338 11.09765625 40.74316406 C10.94167969 39.57237305 10.78570312 38.40158203 10.625 37.1953125 C10.42583984 35.60807373 10.42583984 35.60807373 10.22265625 33.98876953 C9.77741461 31.09936835 9.77741461 31.09936835 6.5625 29.4375 C2.47495921 28.95462577 2.47495921 28.95462577 -1.10351562 30.64550781 C-6.4382765 37.81189595 -1.15108024 55.22501766 0.0625 63.6875 C0.30413343 65.41526014 0.54502436 67.14312428 0.78515625 68.87109375 C1.36906013 73.06114284 1.96296162 77.24966063 2.5625 81.4375 C1.44719274 80.4878287 0.3327837 79.53710245 -0.78125 78.5859375 C-1.40193359 78.05661621 -2.02261719 77.52729492 -2.66210938 76.98193359 C-5.04805995 74.90636658 -7.2561729 72.72789345 -9.4375 70.4375 C-9.994375 69.94507813 -10.55125 69.45265625 -11.125 68.9453125 C-18.81120813 61.49101582 -21.61731676 49.65609987 -21.9375 39.1875 C-21.18411398 24.69473211 -16.41039778 11.9951526 -5.65625 2.01171875 C-3.4375 0.4375 -3.4375 0.4375 0 0 Z " fill="#FCB008" transform="translate(184.4375,321.5625)"/>
<path d="M0 0 C14.36264332 1.16812626 26.0894215 6.73357838 36 17.1875 C45.3954431 28.41833198 48.32259823 41.16831643 47.3125 55.5 C46.56704045 59.2703879 45.57929495 62.87304541 44.3125 66.5 C43.6525 66.5 42.9925 66.5 42.3125 66.5 C40.56589075 63.94939602 38.95471157 61.40249054 37.375 58.75 C36.89571045 57.95464844 36.4164209 57.15929687 35.92260742 56.33984375 C32.20884991 50.12426911 28.63387803 43.83318141 25.125 37.5 C24.64361572 36.63407227 24.16223145 35.76814453 23.66625977 34.87597656 C23.22596436 34.0712793 22.78566895 33.26658203 22.33203125 32.4375 C21.94120361 31.72464844 21.55037598 31.01179688 21.14770508 30.27734375 C20.3125 28.5 20.3125 28.5 20.3125 26.5 C14.82040888 25.221025 14.82040888 25.221025 9.75 26.9375 C7.69451868 30.60161888 8.28447764 33.58343398 9.3125 37.5 C10.91963314 41.18652675 12.87338489 44.64005594 14.875 48.125 C15.41350586 49.08615723 15.95201172 50.04731445 16.50683594 51.03759766 C18.09562684 53.86606233 19.7018056 56.68396503 21.3125 59.5 C22.17114866 61.0152989 23.02927911 62.53089164 23.88671875 64.046875 C25.67938494 67.20721015 27.48907963 70.35728137 29.3125 73.5 C17.09354786 72.34379808 7.53646083 66.59041384 -0.6875 57.5 C-3.04787333 54.3104438 -4.91079831 51.04229899 -6.6875 47.5 C-7.1 46.80132812 -7.5125 46.10265625 -7.9375 45.3828125 C-10.9784828 39.44867245 -11.07135438 33.53620502 -11.125 27 C-11.13515137 26.12174561 -11.14530273 25.24349121 -11.15576172 24.33862305 C-11.04765356 16.1688435 -9.72630102 1.31882048 0 0 Z " fill="#FDB108" transform="translate(60.6875,236.5)"/>
<path d="M0 0 C1.07314453 0.41572266 1.07314453 0.41572266 2.16796875 0.83984375 C12.98377837 5.52453574 20.49687945 14.78165256 25.02734375 25.41015625 C25.73359723 27.25552824 26.37516468 29.12549404 27 31 C20.41926013 29.70629387 14.50049288 27.81228204 8.3125 25.25 C7.44544434 24.89945557 6.57838867 24.54891113 5.68505859 24.18774414 C1.69027672 22.56317983 -2.27601499 20.89635183 -6.19921875 19.10546875 C-6.82675049 18.82219727 -7.45428223 18.53892578 -8.10083008 18.24707031 C-9.75885065 17.49050003 -11.40719095 16.71281509 -13.0546875 15.93359375 C-16.52480632 14.83364893 -18.53378614 14.93841029 -22 16 C-24.31282587 19.46923881 -24.42478586 20.92205575 -24 25 C-21.83792678 27.73488223 -19.40223121 28.90434153 -16.23828125 30.26953125 C-14.81733154 30.88634766 -14.81733154 30.88634766 -13.36767578 31.515625 C-12.35946777 31.94359375 -11.35125977 32.3715625 -10.3125 32.8125 C-9.28624512 33.25464844 -8.25999023 33.69679688 -7.20263672 34.15234375 C-0.41546141 37.05069113 6.41575353 39.78040187 13.3894043 42.19848633 C17.89776944 43.79553888 17.89776944 43.79553888 19 46 C7.26345009 51.89988146 -5.7663615 53.2254085 -18.5625 49.875 C-31.70399335 44.984079 -41.45397459 36.29544455 -48 24 C-50.27871421 18.9092555 -52.23044727 13.53701272 -51 8 C-45.67654168 1.96164081 -38.55416737 -0.78728326 -31 -3 C-30.37738281 -3.19207031 -29.75476563 -3.38414062 -29.11328125 -3.58203125 C-19.02543967 -5.57722358 -9.34425368 -3.97303823 0 0 Z " fill="#FEB40A" transform="translate(96,323)"/>
<path d="M0 0 C14.21984627 5.85523082 23.16243887 14.99049328 29.359375 28.99609375 C31.46210965 34.42221191 31.84269944 39.34605562 31.75 45.125 C31.73573975 46.56576904 31.73573975 46.56576904 31.72119141 48.03564453 C31.40492645 58.88554335 28.24000898 67.33826526 21.6171875 76.01953125 C20.1875 77.3125 20.1875 77.3125 17.1875 77.3125 C16.48600339 73.27937761 15.7926752 69.24493567 15.10620117 65.20922852 C14.87264909 63.84265271 14.63704387 62.47642585 14.39916992 61.1105957 C13.0007078 53.07165596 11.88943102 45.16628029 11.60913086 36.9909668 C11.12542756 33.91817646 10.34243088 32.52990188 8.1875 30.3125 C5.27745097 29.23026634 5.27745097 29.23026634 2.1875 29.3125 C-0.07908923 30.34134246 -0.07908923 30.34134246 -1.8125 32.3125 C-4.24479028 44.49183591 -0.28309422 58.54075573 1.72998047 70.5390625 C2.26647158 73.7912178 2.7417536 77.04682109 3.1875 80.3125 C-4.56321131 77.77967827 -10.62031087 70.84666911 -14.6875 63.9375 C-15.43347591 62.41369156 -16.14078498 60.8704702 -16.8125 59.3125 C-17.20308594 58.44367188 -17.59367188 57.57484375 -17.99609375 56.6796875 C-22.60264777 44.97999666 -22.32316622 32.04262726 -18.140625 20.24609375 C-15.95855937 15.42629585 -13.1848873 11.37211748 -9.8125 7.3125 C-8.92304688 6.22001953 -8.92304688 6.22001953 -8.015625 5.10546875 C-3.84486743 0.42720749 -3.84486743 0.42720749 0 0 Z " fill="#FDB108" transform="translate(239.8125,364.6875)"/>
<path d="M0 0 C11.0916248 5.57777674 19.10870905 16.34811186 23 28 C26.55401012 41.58744005 24.37115265 55.57939196 17.5078125 67.6171875 C14.79376235 71.90623049 11.84991129 75.68479861 8 79 C7.34 79 6.68 79 6 79 C5.24978782 72.94036236 4.8465236 67.01595564 4.7890625 60.9140625 C4.76103987 59.22524996 4.73237587 57.53644796 4.703125 55.84765625 C4.66164153 53.22086377 4.62469522 50.59427889 4.59863281 47.96728516 C4.57112335 45.40748225 4.5253183 42.84853689 4.4765625 40.2890625 C4.47330963 39.50157623 4.47005676 38.71408997 4.46670532 37.90274048 C4.39703117 33.71735665 4.39703117 33.71735665 2.65380859 30.00927734 C-0.01491393 28.38062383 -1.95383459 28.56483351 -5 29 C-7.32297244 30.46237398 -7.32297244 30.46237398 -9 33 C-9.36249244 35.83534993 -9.49141737 38.27031935 -9.42578125 41.09765625 C-9.42084908 42.28191444 -9.42084908 42.28191444 -9.41581726 43.49009705 C-9.40009169 46.01478979 -9.35612713 48.53815212 -9.3125 51.0625 C-9.3010012 52.73371293 -9.29121824 54.4049386 -9.28320312 56.07617188 C-9.22030548 64.42482699 -8.99075874 72.70021261 -8 81 C-9.6950535 79.35631176 -11.35363966 77.69186276 -13 76 C-13.55429688 75.44183594 -14.10859375 74.88367188 -14.6796875 74.30859375 C-25.09992738 63.2168273 -28.6071132 50.42524809 -28.30078125 35.51171875 C-27.26959651 23.47230211 -21.06079159 13.06079159 -12.625 4.625 C-8.33193008 1.02810358 -5.77434602 -0.70616206 0 0 Z " fill="#FCB007" transform="translate(143,265)"/>
<path d="M0 0 C0 46.86 0 93.72 0 142 C-2.64 140.02 -5.28 138.04 -8 136 C-9.97104913 134.94408082 -11.96088152 133.91760331 -14 133 C-13.76410156 132.16082031 -13.76410156 132.16082031 -13.5234375 131.3046875 C-12.97072337 128.87109546 -12.72598118 126.61845827 -12.625 124.125 C-12.57601563 123.30257812 -12.52703125 122.48015625 -12.4765625 121.6328125 C-12.80837319 118.73274705 -12.80837319 118.73274705 -15.49645996 116.38722229 C-18.79619748 112.53009059 -18.68013151 109.08250032 -18.58007812 104.17163086 C-18.58253036 103.30406158 -18.5849826 102.43649231 -18.58750916 101.54263306 C-18.58967593 99.66511555 -18.58043987 97.7875574 -18.5610199 95.91013908 C-18.53087168 92.92741406 -18.53200498 89.94611964 -18.5411377 86.96327209 C-18.55739619 79.5510172 -18.52020972 72.13920461 -18.48455811 64.72705078 C-18.45646974 58.4672885 -18.4490422 52.2081371 -18.46812439 45.94833565 C-18.46873644 43.02951041 -18.43968867 40.11198582 -18.40930176 37.19334412 C-18.38398727 26.70474842 -19.15571075 18.50913003 -24 9 C-24.33 8.34 -24.66 7.68 -25 7 C-24.40985107 6.823479 -23.81970215 6.64695801 -23.21166992 6.46508789 C-20.53680224 5.66470684 -17.86214901 4.86361146 -15.1875 4.0625 C-14.25873047 3.78470703 -13.32996094 3.50691406 -12.37304688 3.22070312 C-11.0340332 2.81948242 -11.0340332 2.81948242 -9.66796875 2.41015625 C-8.84578857 2.16402588 -8.0236084 1.91789551 -7.17651367 1.66430664 C-1.72363102 0 -1.72363102 0 0 0 Z " fill="#0255C8" transform="translate(410,178)"/>
<path d="M0 0 C0.66569 -0.02072067 1.33138 -0.04144135 2.01724243 -0.06278992 C4.16005159 -0.11095293 6.29814232 -0.11113571 8.44140625 -0.09765625 C9.53278397 -0.09810944 9.53278397 -0.09810944 10.64620972 -0.09857178 C21.83443392 -0.03199087 29.43988267 1.29040316 37.4921875 9.41992188 C40.23452737 11.99573723 43.4123264 13.93370524 46.56640625 15.96484375 C47.18467285 16.37516846 47.80293945 16.78549316 48.43994141 17.20825195 C53.76367836 20.73987456 59.2052816 24.06497437 64.6875 27.34375 C65.45191406 27.83746094 66.21632813 28.33117187 67.00390625 28.83984375 C67.00390625 29.16984375 67.00390625 29.49984375 67.00390625 29.83984375 C35.82773622 33.69594992 -13.69842855 34.03828722 -40.99609375 15.83984375 C-40.24328125 15.78828125 -39.49046875 15.73671875 -38.71484375 15.68359375 C-31.56689223 14.92022029 -25.89708785 13.23080697 -19.49609375 10.02734375 C-18.82642578 9.69605469 -18.15675781 9.36476563 -17.46679688 9.0234375 C-14.26046786 7.3443931 -12.15848317 6.02353669 -9.71264648 3.25683594 C-6.30506636 0.22501755 -4.51068611 0.13790973 0 0 Z " fill="#66BDFA" transform="translate(213.99609375,465.16015625)"/>
<path d="M0 0 C3.21761025 2.28639599 4.00751 3.72895627 4.78515625 7.6171875 C4.86765625 8.6896875 4.95015625 9.7621875 5.03515625 10.8671875 C5.69515625 11.1971875 6.35515625 11.5271875 7.03515625 11.8671875 C6.37515625 11.8671875 5.71515625 11.8671875 5.03515625 11.8671875 C4.99390625 12.5890625 4.95265625 13.3109375 4.91015625 14.0546875 C3.70732714 17.92092391 1.32609938 19.74163403 -1.96484375 21.8671875 C-11.47370882 26.73218823 -23.82777382 27.87571386 -34.15234375 24.6171875 C-39.15663584 22.55545788 -44.52528966 19.88182647 -46.96484375 14.8671875 C-47.62874435 10.50675396 -47.588692 7.06063632 -45.52734375 3.1171875 C-32.89298417 -7.97639652 -14.26860565 -8.22643268 0 0 Z " fill="#0055C9" transform="translate(276.96484375,130.1328125)"/>
<path d="M0 0 C1.16660156 0.22816406 2.33320312 0.45632813 3.53515625 0.69140625 C13.25070155 2.70453726 18.63265853 6.27241615 25 14 C26.14356769 15.31447451 27.28923493 16.62712692 28.4375 17.9375 C28.97375 18.5665625 29.51 19.195625 30.0625 19.84375 C33.05105455 23.169722 36.24488252 26.28654695 39.44506836 29.40795898 C40.64713757 30.58814561 41.8259277 31.79195816 43 33 C43 33.33 43 33.66 43 34 C39.19986553 34.55662006 35.78265741 34.75036411 32 34 C29.81262908 32.01549009 28.42078909 29.91225502 26.79296875 27.453125 C20.54021031 18.89815267 9.18358261 14.58608929 -1 13 C-14.07569318 12.1844404 -23.23995155 14.06040968 -35 20 C-36.83708226 17.35675132 -38.66902914 14.70998489 -40.5 12.0625 C-41.02464844 11.30775391 -41.54929687 10.55300781 -42.08984375 9.77539062 C-42.58613281 9.05673828 -43.08242187 8.33808594 -43.59375 7.59765625 C-44.05458984 6.93258057 -44.51542969 6.26750488 -44.99023438 5.58227539 C-46 4 -46 4 -46 3 C-45.01157104 3.03927612 -45.01157104 3.03927612 -44.00317383 3.0793457 C-27.32222642 3.7356886 -27.32222642 3.7356886 -11.58984375 -1.00390625 C-7.19861402 -2.69284076 -4.28633363 -1.4510677 0 0 Z " fill="#96CEF5" transform="translate(124,370)"/>
<path d="M0 0 C2.64 1.32 5.28 2.64 8 4 C7.44780777 6.94502524 6.78281617 9.79075038 5.98828125 12.68359375 C2.69363955 25.88324145 4.63281384 39.95702381 11.57421875 51.65234375 C15.78576984 57.39536796 21.56752803 63.78376401 28 67 C28.625 70.0625 28.625 70.0625 29 73 C23.8488576 70.24793026 19.60410457 67.18612172 15.25 63.3125 C14.02821498 62.24509569 12.80554785 61.17870028 11.58203125 60.11328125 C10.98084473 59.58814941 10.3796582 59.06301758 9.76025391 58.52197266 C4.76311727 54.20128614 -0.32773259 49.92932261 -5.68359375 46.0625 C-9.92732 42.28393767 -10.50424602 37.33429255 -11.6875 31.9375 C-11.95949219 30.72964844 -12.23148438 29.52179688 -12.51171875 28.27734375 C-13.08800527 24.40930863 -13.04033087 22.44856197 -10.765625 19.28125 C-10.26546875 18.6934375 -9.7653125 18.105625 -9.25 17.5 C-5.85227442 13.16892329 -3.95603918 8.54975826 -1.98046875 3.44140625 C-1 1 -1 1 0 0 Z " fill="#96CEF5" transform="translate(215,378)"/>
<path d="M0 0 C1.20269531 0.48919922 1.20269531 0.48919922 2.4296875 0.98828125 C16.86042575 6.53478949 30.61410137 8.24877157 46.0625 8.3125 C47.77505981 8.32083862 47.77505981 8.32083862 49.5222168 8.3293457 C54.3040824 8.28827102 58.68342238 8.12274308 63.33740234 6.9934082 C67.87176986 5.93287017 72.11285923 5.74003535 76.75390625 5.8046875 C77.93339088 5.80893234 77.93339088 5.80893234 79.13670349 5.81326294 C81.61213359 5.82432711 84.08718199 5.84940409 86.5625 5.875 C88.2558541 5.88504766 89.94921395 5.89417035 91.64257812 5.90234375 C95.76186253 5.92422102 99.88086689 5.95865282 104 6 C104 6.33 104 6.66 104 7 C103.1028125 6.99363525 102.205625 6.98727051 101.28125 6.98071289 C97.91790754 6.97354668 94.55772333 6.99783062 91.19482422 7.04272461 C89.74598965 7.05577862 88.29698822 7.05667746 86.84814453 7.04467773 C76.89911854 6.76345315 76.89911854 6.76345315 68.4140625 11.34765625 C67.82657227 11.97889404 67.23908203 12.61013184 66.63378906 13.26049805 C64.25405785 15.79420768 61.52720408 16.98680307 58.375 18.375 C57.31023437 18.85710937 56.24546875 19.33921875 55.1484375 19.8359375 C44.38915155 23.81393652 30.36271691 23.48279016 19.7109375 19.32421875 C11.96351593 15.53981542 4.78920605 10.29481716 0 3 C0 2.01 0 1.02 0 0 Z " fill="#FCAA05" transform="translate(134,459)"/>
<path d="M0 0 C0.41507813 0.3403125 0.83015625 0.680625 1.2578125 1.03125 C17.27511374 13.6306334 38.42907652 23.34485221 58.87109375 24.79296875 C61.78889477 25.07671821 64.31941383 25.83153936 67 27 C67.495 27.99 67.495 27.99 68 29 C56.26345009 34.89988146 43.2336385 36.2254085 30.4375 32.875 C17.49732874 28.05900583 7.21233942 19.33438322 1 7 C0.27794866 4.51150161 0.05789716 2.60537227 0 0 Z " fill="#FDAA03" transform="translate(47,340)"/>
<path d="M0 0 C5.76797224 2.74517894 9.59389942 7.31762639 13.51367188 12.23486328 C15.7149988 14.84911979 18.17618695 16.77715215 20.875 18.875 C25.71867275 22.75284295 30.53836249 26.68157555 35 31 C35 31.33 35 31.66 35 32 C31.93395963 32.42290212 29.95618285 32.6946222 27 32 C25.21300008 30.23100512 23.98810122 28.32460534 22.60546875 26.2265625 C16.4998117 17.75886294 6.55108849 14.18369616 -3 11 C-17.73297442 9.76742767 -29.0065313 12.00564344 -42 19 C-44.04119788 17.38405168 -46.04072937 15.7143618 -48 14 C-48 13.34 -48 12.68 -48 12 C-46.82244141 11.45472656 -46.82244141 11.45472656 -45.62109375 10.8984375 C-44.04521484 10.14433594 -44.04521484 10.14433594 -42.4375 9.375 C-40.88869141 8.64410156 -40.88869141 8.64410156 -39.30859375 7.8984375 C-36.47246989 6.27109842 -35.14294344 5.13764179 -32.97265625 2.8671875 C-25.21431118 -3.98225251 -9.41458136 -1.99690933 0 0 Z " fill="#97CEF3" transform="translate(183,419)"/>
<path d="M0 0 C0.33 0 0.66 0 1 0 C1.33 18.48 1.66 36.96 2 56 C2.99 55.505 2.99 55.505 4 55 C10.10685229 54.49109564 13.12959772 54.9224539 18 59 C21.39479158 62.79893344 21.51528894 65.57853508 21.34765625 70.52734375 C20.82668967 74.23264536 19.52514963 76.27549645 17 79 C12.634442 81.910372 9.20499921 82.6506249 4 82 C-0.33833918 79.74740081 -3.20287362 77.5926563 -5 73 C-5.45636933 69.58568132 -5.67206119 66.38676506 -5 63 C-4.34102722 62.24495682 -3.68205444 61.48991364 -3.00311279 60.71199036 C-0.65414204 57.53174706 -0.48811979 56.01174541 -0.45410156 52.1081543 C-0.43438293 50.94732834 -0.41466431 49.78650238 -0.39434814 48.59049988 C-0.39311951 47.34762711 -0.39189087 46.10475433 -0.390625 44.82421875 C-0.37408875 43.54392288 -0.35755249 42.26362701 -0.34051514 40.9445343 C-0.29693132 37.5530405 -0.27686299 34.1618049 -0.26177979 30.77008057 C-0.24217586 27.30424793 -0.20020975 23.83869283 -0.16015625 20.37304688 C-0.08620265 13.58209902 -0.03460172 6.79125621 0 0 Z " fill="#F89405" transform="translate(377,234)"/>
<path d="M0 0 C1.41791408 0.45445964 2.83428046 0.91374944 4.25 1.375 C5.43335938 1.75785156 5.43335938 1.75785156 6.640625 2.1484375 C8.86627958 2.95173667 10.90931672 3.89711662 13 5 C13.33 4.01 13.66 3.02 14 2 C13.93039063 3.4540625 13.93039063 3.4540625 13.859375 4.9375 C13.5277218 15.23947761 15.06413504 24.14388191 18 34 C13.09688241 30.02225953 9.0622538 25.83132126 5 21 C4.21625 20.13375 3.4325 19.2675 2.625 18.375 C-1.04074658 13.01737039 -0.11111382 6.24706587 0 0 Z " fill="#95CCF2" transform="translate(150,349)"/>
</svg>
